<svg xmlns="http://www.w3.org/2000/svg" viewBox="0 0 30 30"><title>alternates</title><g id="Layer_2" data-name="Layer 2"><g id="Layer_1-2" data-name="Layer 1"><rect width="30" height="30" style="fill:#333"/><path d="M13.87,10.17v1l-2,.23a3.34,3.34,0,0,1,.49.89,3.38,3.38,0,0,1,.21,1.25,3.16,3.16,0,0,1-1.07,2.51A4.33,4.33,0,0,1,8.57,17a4.94,4.94,0,0,1-.9-.08,1.59,1.59,0,0,0-1,1.38A.7.7,0,0,0,7,19a2.64,2.64,0,0,0,1.24.21h1.89a4.24,4.24,0,0,1,2.67.73A2.55,2.55,0,0,1,13.74,22a3,3,0,0,1-1.43,2.71,7.63,7.63,0,0,1-4.16.93,5.69,5.69,0,0,1-3.24-.78,2.52,2.52,0,0,1-1.14-2.21A2.48,2.48,0,0,1,4.4,21a3.18,3.18,0,0,1,1.76-1,1.7,1.7,0,0,1-.69-.58,1.53,1.53,0,0,1-.28-.91,1.72,1.72,0,0,1,.31-1,3.29,3.29,0,0,1,1-.85,2.89,2.89,0,0,1-1.35-1.16,3.42,3.42,0,0,1-.52-1.87,3.46,3.46,0,0,1,1.05-2.71,4.31,4.31,0,0,1,3-1,5.41,5.41,0,0,1,1.51.2ZM5.34,22.67A1.45,1.45,0,0,0,6.07,24a4,4,0,0,0,2.1.45,5.87,5.87,0,0,0,3-.61,1.87,1.87,0,0,0,1-1.66A1.31,1.31,0,0,0,11.64,21a4.17,4.17,0,0,0-2-.34H7.67A2.56,2.56,0,0,0,6,21.15,1.88,1.88,0,0,0,5.34,22.67Zm.88-9.07a2.18,2.18,0,0,0,.63,1.7,2.54,2.54,0,0,0,1.77.58A2.07,2.07,0,0,0,11,13.57a2.13,2.13,0,0,0-2.4-2.41,2.38,2.38,0,0,0-1.76.62A2.48,2.48,0,0,0,6.22,13.59Z" style="fill:#fff"/><path d="M23.27,20.75q0-.35.09-1.32h-.11a3.74,3.74,0,0,1-3.34,1.63,4,4,0,0,1-3.29-1.47,6.37,6.37,0,0,1-1.17-4.07,6.35,6.35,0,0,1,1.19-4.07A3.92,3.92,0,0,1,19.89,10a4,4,0,0,1,3.38,1.62h.11l.23-1.43h1.28v10.9a4.69,4.69,0,0,1-1.15,3.46,4.89,4.89,0,0,1-3.58,1.15A9.07,9.07,0,0,1,16.33,25V23.45a6.41,6.41,0,0,0,1.76.63,10.18,10.18,0,0,0,2.18.22,2.92,2.92,0,0,0,2.19-.83,3.08,3.08,0,0,0,.8-2.25Zm-3.17-1a2.94,2.94,0,0,0,2.4-.89,4.65,4.65,0,0,0,.78-2.87v-.42a5.26,5.26,0,0,0-.77-3.2,2.89,2.89,0,0,0-2.44-1,2.45,2.45,0,0,0-2.15,1.09,5.51,5.51,0,0,0-.75,3.13,5.41,5.41,0,0,0,.74,3.1A2.5,2.5,0,0,0,20.09,19.71Z" style="fill:#fff"/></g></g></svg>