<svg xmlns="http://www.w3.org/2000/svg" viewBox="0 0 30 30"><title>dligatures</title><g id="Layer_2" data-name="Layer 2"><g id="Layer_1-2" data-name="Layer 1"><rect width="30" height="30" style="fill:#333"/><path d="M22.51,12.67h-2V19q0,1.55,1.16,1.55a3.91,3.91,0,0,0,.85-.12v1.46a5.59,5.59,0,0,1-1.4.19,2.17,2.17,0,0,1-1.8-.81,3.59,3.59,0,0,1-.64-2.29V12.67H16.89v-1.4h1.84v-.83a2.47,2.47,0,0,0-.5-1.67,1.83,1.83,0,0,0-1.46-.57,1.83,1.83,0,0,0-1.31.43A1.46,1.46,0,0,0,15,9.75a3.81,3.81,0,0,0,.15,1.08q.15.51.33,1.05T15.82,13A5.73,5.73,0,0,1,16,14.38H14.15a1.63,1.63,0,0,0-.63-1.28,2.36,2.36,0,0,0-1.59-.54A2.47,2.47,0,0,0,10.4,13a1.35,1.35,0,0,0-.56,1.12,1.1,1.1,0,0,0,.52,1,6.4,6.4,0,0,0,1.87.63,9.7,9.7,0,0,1,2.19.72,3.19,3.19,0,0,1,1.25,1,2.48,2.48,0,0,1,.41,1.44,2.71,2.71,0,0,1-1.13,2.27A4.75,4.75,0,0,1,12,22a5.33,5.33,0,0,1-2.25-.45,3.66,3.66,0,0,1-1.53-1.25,3,3,0,0,1-.55-1.74H9.48A1.87,1.87,0,0,0,10.2,20a2.82,2.82,0,0,0,1.79.53,2.92,2.92,0,0,0,1.65-.42A1.28,1.28,0,0,0,14.26,19a1.33,1.33,0,0,0-.55-1.14,5.3,5.3,0,0,0-1.92-.7,9.09,9.09,0,0,1-2.18-.7,3.11,3.11,0,0,1-1.19-1A2.34,2.34,0,0,1,8,14.18,2.74,2.74,0,0,1,9.13,12a4.29,4.29,0,0,1,2.81-.9,5.36,5.36,0,0,1,1.78.29,5.18,5.18,0,0,1-.43-1.87,2.5,2.5,0,0,1,1-2,3.82,3.82,0,0,1,2.5-.81,3.79,3.79,0,0,1,2.79,1,3.88,3.88,0,0,1,1,2.88v.75h2Z" style="fill:#fff"/></g></g></svg>