<svg xmlns="http://www.w3.org/2000/svg" viewBox="0 0 30 30"><title>hligatures</title><g id="Layer_2" data-name="Layer 2"><g id="Layer_1-2" data-name="Layer 1"><rect width="30" height="30" style="fill:#333"/><path d="M20.3,12.67h-2v6.56a1.46,1.46,0,0,0,.26,1,1.11,1.11,0,0,0,.9.32,3.91,3.91,0,0,0,.85-.12v1.46A5.28,5.28,0,0,1,19,22a2.25,2.25,0,0,1-1.83-.73,3.15,3.15,0,0,1-.62-2.08V12.67H14.59v-1.4h1.92V8.48a4.62,4.62,0,0,0-1.59-.34h-.23q-1.79,0-1.79,2.16V21.84H11.09V12.67H9.42v-1.4h1.67V10.18A3.67,3.67,0,0,1,12,7.57a3.18,3.18,0,0,1,2.44-.93,7.89,7.89,0,0,1,2,.28,10.33,10.33,0,0,1,1.95.71v3.65h2Z" style="fill:#fff"/></g></g></svg>