<?xml version="1.0" encoding="utf-8"?>
<!-- Generator: Adobe Illustrator 20.0.0, SVG Export Plug-In . SVG Version: 6.00 Build 0)  -->
<svg version="1.1" id="Layer_1" xmlns="http://www.w3.org/2000/svg" xmlns:xlink="http://www.w3.org/1999/xlink" x="0px" y="0px"
	 viewBox="0 0 16 16" style="enable-background:new 0 0 16 16;" xml:space="preserve">
<style type="text/css">
	.st0{fill:#333333;}
	.st1{fill:#4A4A4A;}
</style>
<title>Group 5</title>
<desc>Created with Sketch.</desc>
<g>
	<path class="st0" d="M14,0H2C0.9,0,0,0.9,0,2v12c0,1.1,0.9,2,2,2h12c1.1,0,2-0.9,2-2V2C16,0.9,15.1,0,14,0z M10.9,13l-0.7-2.4H6.5
		L5.8,13H3.5L7,3h2.6l3.5,10H10.9z"/>
	<path class="st1" d="M8.3,4.5C8.2,5.1,7.8,6.5,7,8.8h2.6C9,6.7,8.6,5.5,8.5,5.2S8.4,4.7,8.3,4.5z"/>
</g>
</svg>
