<?xml version="1.0" encoding="utf-8"?>
<!-- Generator: Adobe Illustrator 21.1.0, SVG Export Plug-In . SVG Version: 6.00 Build 0)  -->
<svg version="1.1" id="Layer_1" xmlns="http://www.w3.org/2000/svg" xmlns:xlink="http://www.w3.org/1999/xlink" x="0px" y="0px"
	 viewBox="0 0 50 50" style="enable-background:new 0 0 50 50;" xml:space="preserve">
<style type="text/css">
	.st0{enable-background:new    ;}
</style>
<title>A</title>
<desc>Created with Sketch.</desc>
<g class="st0">
	<path d="M28,25.1c0,4.6-1.1,8.1-3.4,10.6s-5.6,3.7-9.8,3.7c-4.3,0-7.5-1.2-9.8-3.7s-3.4-6-3.4-10.7S2.7,16.9,5,14.4
		s5.6-3.7,9.8-3.7c4.3,0,7.5,1.2,9.8,3.7C26.9,16.9,28,20.5,28,25.1z M7.7,25.1c0,3.1,0.6,5.4,1.8,7s2.9,2.4,5.3,2.4
		c4.7,0,7.1-3.1,7.1-9.4c0-6.3-2.3-9.4-7-9.4c-2.3,0-4.1,0.8-5.3,2.4C8.3,19.6,7.7,22,7.7,25.1z"/>
	<path d="M41.7,39h-5.9V16.1h-7.6v-4.9h21v4.9h-7.5V39z"/>
</g>
</svg>
