<svg xmlns="http://www.w3.org/2000/svg" viewBox="0 0 30 30"><title>sup</title><g id="Layer_2" data-name="Layer 2"><g id="Layer_1-2" data-name="Layer 1"><rect width="30" height="30" style="fill:#333"/><path d="M14.63,21.84a3.81,3.81,0,0,1-.25-1.11,4,4,0,0,1-3,1.31,3.73,3.73,0,0,1-2.56-.88,2.86,2.86,0,0,1-1-2.24,3,3,0,0,1,1.25-2.56,5.91,5.91,0,0,1,3.53-.91h1.76v-.83a2,2,0,0,0-.57-1.51,2.27,2.27,0,0,0-1.67-.56,2.63,2.63,0,0,0-1.62.49,1.44,1.44,0,0,0-.65,1.18H8a2.49,2.49,0,0,1,.56-1.53,3.83,3.83,0,0,1,1.52-1.17,5.11,5.11,0,0,1,2.11-.43,4.17,4.17,0,0,1,2.86.91,3.29,3.29,0,0,1,1.07,2.51v4.86a6,6,0,0,0,.37,2.31v.16Zm-3-1.38A3.18,3.18,0,0,0,13.25,20a2.66,2.66,0,0,0,1.1-1.14V16.72H12.93q-3.32,0-3.32,1.94A1.64,1.64,0,0,0,10.18,20,2.18,2.18,0,0,0,11.64,20.47Z" style="fill:#fff"/><path d="M19.76,13V6.42h0l-1.44.68-.22-1,1.88-.88h1.22V13Z" style="fill:#fff"/></g></g></svg>